<?xml version="1.0" encoding="utf-8"?>
<!-- Generator: Adobe Illustrator 24.3.0, SVG Export Plug-In . SVG Version: 6.00 Build 0)  -->
<svg version="1.1" id="Calque_1" xmlns="http://www.w3.org/2000/svg" xmlns:xlink="http://www.w3.org/1999/xlink" x="0px" y="0px"
	 viewBox="0 0 841.89 595.28" style="enable-background:new 0 0 841.89 595.28;" xml:space="preserve">
<style type="text/css">
	.st0{fill-rule:evenodd;clip-rule:evenodd;fill:#E5262C;}
	.st1{fill-rule:evenodd;clip-rule:evenodd;fill:#010202;}
	.st2{fill-rule:evenodd;clip-rule:evenodd;fill:#006AA7;}
</style>
<g>
	<g>
		<polygon class="st0" points="671.08,82.59 564.86,82.59 540.4,207.4 646.62,207.4 		"/>
		<path class="st1" d="M324.75,339.14c5.27-1.64,9.88-3.98,13.83-7.04c8.35-6.52,14.06-13.36,17.08-20.53
			c3.01-7.17,5-13.63,5.98-19.28c0.97-5.6,1.13-12.02,0.54-19.18c-0.6-7.16-3.94-14.01-10.08-20.52
			c-5.66-5.96-14.75-9.21-27.35-9.73v-25.28H325c8.03,0,16.05,0.65,24.18,2c8.09,1.29,16.11,4.36,24.08,9.16
			c8.03,4.79,14.17,12.39,18.37,22.78c4.25,10.34,4.9,23.97,2.05,40.77c-2.75,16.32-7.87,29.63-15.3,39.97
			c-7.44,10.29-15.84,17.89-25.26,22.84c-9.38,4.95-18.54,8.18-27.53,9.69l-0.85,0.15V339.14z M490.69,367.11h-26.66l-8.89-116.51
			l-24.99,116.51h-30.33l36.36-149.54h45.4l6.9,105.36l48.58-105.36h46.05l-25.37,149.54h-30.32l17.88-115.05L490.69,367.11z
			 M587.7,367.11l25.36-149.54h30.28l-25.37,149.54H587.7z M303.78,242.79l-16.8,99.11h17.34c7.67,0,14.48-0.93,20.43-2.76v25.79
			c-8.7,1.47-17.03,2.18-25.16,2.18H252.4l25.42-149.54h46.93v25.28c-1.18-0.04-2.38-0.07-3.62-0.07H303.78z"/>
		<path class="st2" d="M234.51,336.94l-2.42,25.42c-13.52,4.31-26.77,6.41-39.75,6.41c-10.56,0-20.26-1.62-29.14-4.8
			c-8.94-3.23-16.43-8.02-22.51-14.43c-6.09-6.41-10.34-14.39-12.76-23.92c-2.37-9.47-2.53-20.3-0.48-32.42
			c1.99-11.69,5.7-22.3,11.15-31.89c5.44-9.53,12.38-17.72,20.79-24.5c8.34-6.79,18.04-12.02,28.98-15.57
			c10.93-3.56,22.78-5.33,35.55-5.33c11.31,0,22.03,1.66,32.21,5.11l-5.65,25.65c-8.62-3.71-18.15-5.6-28.71-5.6
			c-10.23,0-19.72,2.05-28.49,6.09c-8.79,3.99-16.16,9.91-22.09,17.72c-5.87,7.76-9.75,17.08-11.57,27.96
			c-2.05,11.96-1.24,21.76,2.42,29.35c3.71,7.6,9.15,13.09,16.32,16.38c7.16,3.34,15.14,5.01,23.86,5.01
			C213.34,343.57,224.12,341.35,234.51,336.94"/>
	</g>
</g>
</svg>
